<?xml version="1.0" encoding="utf-8"?>
<!-- Generator: Adobe Illustrator 24.2.0, SVG Export Plug-In . SVG Version: 6.00 Build 0)  -->
<svg version="1.1" id="Layer_1" xmlns="http://www.w3.org/2000/svg" xmlns:xlink="http://www.w3.org/1999/xlink" x="0px" y="0px"
	 viewBox="0 0 161 135.1" style="enable-background:new 0 0 161 135.1;" xml:space="preserve">
<style type="text/css">
	.st0{fill:#404040;}
	.st1{fill:none;stroke:#FFFFFF;stroke-width:2;stroke-linecap:round;stroke-linejoin:round;}
	.st2{fill:#333333;}
</style>
<g id="_3.Camera">
	<path class="st0" d="M88.5,35.2h-3l-1-3h-8l-1,3h-3c-1.7,0-3,1.3-3,3v11c0,1.7,1.3,3,3,3h16c1.7,0,3-1.3,3-3v-11
		C91.5,36.6,90.2,35.2,88.5,35.2z"/>
	<circle class="st1" cx="80.5" cy="44.2" r="4"/>
</g>
<g>
	<path class="st2" d="M44.8,65.2v-1.7h1.5v1.7H44.8z M44.8,75.7v-8.8h1.5v8.8H44.8z"/>
	<path class="st2" d="M48.5,75.7v-8.8h1.3v1.2c0.3-0.4,0.6-0.8,1.1-1s1-0.4,1.6-0.4c0.7,0,1.2,0.1,1.6,0.4c0.4,0.3,0.7,0.6,0.9,1.1
		c0.7-1,1.6-1.5,2.7-1.5c0.9,0,1.5,0.2,2,0.7s0.7,1.2,0.7,2.2v6.1H59v-5.6c0-0.6,0-1-0.1-1.3c-0.1-0.3-0.3-0.5-0.5-0.6
		c-0.3-0.2-0.6-0.2-0.9-0.2c-0.6,0-1.1,0.2-1.5,0.6s-0.6,1.1-0.6,2v5.1h-1.5v-5.7c0-0.7-0.1-1.2-0.4-1.5s-0.6-0.5-1.2-0.5
		c-0.4,0-0.8,0.1-1.2,0.3c-0.4,0.2-0.6,0.5-0.8,1c-0.2,0.4-0.2,1-0.2,1.8v4.6H48.5z"/>
	<path class="st2" d="M62.7,75.7v-8.8H64v1.2c0.3-0.4,0.6-0.8,1.1-1s1-0.4,1.6-0.4c0.7,0,1.2,0.1,1.6,0.4c0.4,0.3,0.7,0.6,0.9,1.1
		c0.7-1,1.6-1.5,2.7-1.5c0.9,0,1.5,0.2,2,0.7s0.7,1.2,0.7,2.2v6.1h-1.5v-5.6c0-0.6,0-1-0.1-1.3c-0.1-0.3-0.3-0.5-0.5-0.6
		c-0.3-0.2-0.6-0.2-0.9-0.2c-0.6,0-1.1,0.2-1.5,0.6s-0.6,1.1-0.6,2v5.1h-1.5v-5.7c0-0.7-0.1-1.2-0.4-1.5s-0.6-0.5-1.2-0.5
		c-0.4,0-0.8,0.1-1.2,0.3c-0.4,0.2-0.6,0.5-0.8,1c-0.2,0.4-0.2,1-0.2,1.8v4.6H62.7z"/>
	<path class="st2" d="M82.6,74.6c-0.6,0.5-1.1,0.8-1.6,1c-0.5,0.2-1.1,0.3-1.6,0.3c-1,0-1.7-0.2-2.2-0.7c-0.5-0.5-0.8-1.1-0.8-1.8
		c0-0.4,0.1-0.8,0.3-1.2c0.2-0.4,0.5-0.6,0.8-0.9c0.3-0.2,0.7-0.4,1.1-0.5c0.3-0.1,0.7-0.2,1.3-0.2c1.2-0.1,2.1-0.3,2.7-0.5
		c0-0.2,0-0.3,0-0.4c0-0.6-0.1-1-0.4-1.3c-0.4-0.3-0.9-0.5-1.7-0.5c-0.7,0-1.2,0.1-1.6,0.4c-0.3,0.2-0.6,0.7-0.7,1.3l-1.5-0.2
		c0.1-0.6,0.4-1.1,0.7-1.5s0.7-0.7,1.3-0.9c0.6-0.2,1.2-0.3,2-0.3c0.8,0,1.4,0.1,1.8,0.3c0.5,0.2,0.8,0.4,1,0.7s0.4,0.6,0.5,1
		c0,0.3,0.1,0.7,0.1,1.4v2c0,1.4,0,2.3,0.1,2.6s0.2,0.7,0.4,1.1h-1.6C82.8,75.4,82.7,75,82.6,74.6z M82.5,71.2
		c-0.5,0.2-1.4,0.4-2.4,0.6c-0.6,0.1-1,0.2-1.3,0.3c-0.3,0.1-0.5,0.3-0.6,0.5S78,73,78,73.3c0,0.4,0.2,0.7,0.5,1
		c0.3,0.3,0.7,0.4,1.3,0.4c0.6,0,1.1-0.1,1.5-0.4c0.4-0.3,0.8-0.6,1-1c0.2-0.3,0.2-0.8,0.2-1.5V71.2z"/>
	<path class="st2" d="M86,76.4l1.5,0.2c0.1,0.4,0.2,0.8,0.5,1c0.4,0.3,0.9,0.4,1.5,0.4c0.7,0,1.2-0.1,1.6-0.4
		c0.4-0.3,0.6-0.7,0.8-1.2c0.1-0.3,0.1-0.9,0.1-1.9c-0.7,0.8-1.5,1.2-2.4,1.2c-1.2,0-2.2-0.4-2.8-1.3s-1-1.9-1-3.1
		c0-0.8,0.2-1.6,0.5-2.3s0.7-1.3,1.3-1.6s1.3-0.6,2-0.6c1,0,1.9,0.4,2.6,1.3v-1.1h1.4v7.6c0,1.4-0.1,2.3-0.4,2.9
		c-0.3,0.6-0.7,1-1.3,1.4c-0.6,0.3-1.4,0.5-2.2,0.5c-1.1,0-1.9-0.2-2.5-0.7C86.3,78.1,86,77.3,86,76.4z M87.3,71.1
		c0,1.2,0.2,2,0.7,2.5c0.5,0.5,1,0.8,1.7,0.8c0.7,0,1.3-0.3,1.7-0.8s0.7-1.4,0.7-2.5c0-1.1-0.2-1.9-0.7-2.4
		c-0.5-0.5-1.1-0.8-1.7-0.8c-0.7,0-1.2,0.3-1.7,0.8C87.5,69.2,87.3,70,87.3,71.1z"/>
	<path class="st2" d="M95.8,65.2v-1.7h1.5v1.7H95.8z M95.8,75.7v-8.8h1.5v8.8H95.8z"/>
	<path class="st2" d="M99.6,75.7v-8.8h1.3v1.3c0.6-1,1.6-1.5,2.8-1.5c0.5,0,1,0.1,1.5,0.3c0.4,0.2,0.8,0.4,1,0.8
		c0.2,0.3,0.4,0.7,0.5,1.1c0.1,0.3,0.1,0.8,0.1,1.5v5.4h-1.5v-5.4c0-0.6-0.1-1.1-0.2-1.4s-0.3-0.5-0.6-0.7c-0.3-0.2-0.6-0.3-1-0.3
		c-0.6,0-1.2,0.2-1.6,0.6c-0.5,0.4-0.7,1.2-0.7,2.3v4.8H99.6z"/>
	<path class="st2" d="M115,72.8l1.5,0.2c-0.2,0.9-0.7,1.6-1.4,2.1c-0.7,0.5-1.5,0.7-2.5,0.7c-1.3,0-2.3-0.4-3.1-1.2
		c-0.8-0.8-1.1-1.9-1.1-3.3c0-1.5,0.4-2.6,1.1-3.5s1.8-1.2,3-1.2c1.2,0,2.1,0.4,2.9,1.2c0.7,0.8,1.1,1.9,1.1,3.4c0,0.1,0,0.2,0,0.4
		h-6.6c0.1,1,0.3,1.7,0.8,2.2c0.5,0.5,1.1,0.8,1.8,0.8c0.5,0,1-0.1,1.4-0.4C114.5,73.9,114.8,73.5,115,72.8z M110.1,70.4h4.9
		c-0.1-0.7-0.3-1.3-0.6-1.7c-0.5-0.6-1.1-0.9-1.9-0.9c-0.7,0-1.3,0.2-1.7,0.7C110.4,69,110.2,69.6,110.1,70.4z"/>
	<path class="st2" d="M24.9,96.1v-8.8h1.3v1.3c0.6-1,1.6-1.5,2.8-1.5c0.5,0,1,0.1,1.5,0.3c0.4,0.2,0.8,0.4,1,0.8
		c0.2,0.3,0.4,0.7,0.5,1.1c0.1,0.3,0.1,0.8,0.1,1.5v5.4h-1.5v-5.4c0-0.6-0.1-1.1-0.2-1.4s-0.3-0.5-0.6-0.7c-0.3-0.2-0.6-0.3-1-0.3
		c-0.6,0-1.2,0.2-1.6,0.6c-0.5,0.4-0.7,1.2-0.7,2.3v4.8H24.9z"/>
	<path class="st2" d="M33.8,91.7c0-1.6,0.5-2.8,1.4-3.6c0.8-0.7,1.7-1,2.8-1c1.2,0,2.2,0.4,3,1.2s1.2,1.9,1.2,3.3
		c0,1.1-0.2,2-0.5,2.7c-0.3,0.7-0.8,1.2-1.5,1.5c-0.6,0.4-1.4,0.5-2.1,0.5c-1.2,0-2.2-0.4-3-1.2C34.2,94.3,33.8,93.1,33.8,91.7z
		 M35.3,91.7c0,1.1,0.2,2,0.7,2.5s1.1,0.8,1.9,0.8c0.7,0,1.4-0.3,1.9-0.8s0.7-1.4,0.7-2.6c0-1.1-0.2-1.9-0.7-2.5
		c-0.5-0.6-1.1-0.8-1.8-0.8c-0.7,0-1.4,0.3-1.9,0.8S35.3,90.5,35.3,91.7z"/>
	<path class="st2" d="M43.8,96.1v-8.8h1.3v1.3c0.6-1,1.6-1.5,2.8-1.5c0.5,0,1,0.1,1.5,0.3c0.4,0.2,0.8,0.4,1,0.8
		c0.2,0.3,0.4,0.7,0.5,1.1c0.1,0.3,0.1,0.8,0.1,1.5v5.4h-1.5v-5.4c0-0.6-0.1-1.1-0.2-1.4s-0.3-0.5-0.6-0.7c-0.3-0.2-0.6-0.3-1-0.3
		c-0.6,0-1.2,0.2-1.6,0.6c-0.5,0.4-0.7,1.2-0.7,2.3v4.8H43.8z"/>
	<path class="st2" d="M63.7,96.1v-1.1c-0.6,0.9-1.4,1.3-2.5,1.3c-0.7,0-1.3-0.2-1.9-0.6c-0.6-0.4-1-0.9-1.4-1.6
		c-0.3-0.7-0.5-1.5-0.5-2.4c0-0.9,0.1-1.7,0.4-2.4s0.7-1.3,1.3-1.6c0.6-0.4,1.2-0.6,2-0.6c0.5,0,1,0.1,1.4,0.3
		c0.4,0.2,0.8,0.5,1,0.9v-4.4h1.5v12.2H63.7z M59,91.7c0,1.1,0.2,2,0.7,2.5c0.5,0.6,1,0.8,1.7,0.8c0.7,0,1.2-0.3,1.7-0.8
		c0.5-0.5,0.7-1.3,0.7-2.4c0-1.2-0.2-2.1-0.7-2.7s-1-0.8-1.7-0.8c-0.7,0-1.2,0.3-1.7,0.8C59.2,89.6,59,90.5,59,91.7z"/>
	<path class="st2" d="M67.5,85.6v-1.7h1.5v1.7H67.5z M67.5,96.1v-8.8h1.5v8.8H67.5z"/>
	<path class="st2" d="M70.6,93.4l1.5-0.2c0.1,0.6,0.3,1,0.7,1.4c0.4,0.3,0.9,0.5,1.6,0.5c0.7,0,1.2-0.1,1.5-0.4s0.5-0.6,0.5-1
		c0-0.3-0.1-0.6-0.4-0.8c-0.2-0.1-0.7-0.3-1.5-0.5c-1.1-0.3-1.9-0.5-2.3-0.7c-0.4-0.2-0.7-0.5-1-0.8c-0.2-0.4-0.3-0.8-0.3-1.2
		c0-0.4,0.1-0.8,0.3-1.1c0.2-0.3,0.4-0.6,0.7-0.8c0.2-0.2,0.5-0.3,1-0.4c0.4-0.1,0.8-0.2,1.3-0.2c0.7,0,1.3,0.1,1.8,0.3
		c0.5,0.2,0.9,0.5,1.2,0.8c0.2,0.3,0.4,0.8,0.5,1.4l-1.5,0.2c-0.1-0.5-0.3-0.8-0.6-1.1c-0.3-0.3-0.8-0.4-1.3-0.4
		c-0.7,0-1.2,0.1-1.5,0.3c-0.3,0.2-0.4,0.5-0.4,0.8c0,0.2,0.1,0.4,0.2,0.5c0.1,0.2,0.3,0.3,0.6,0.4c0.1,0.1,0.6,0.2,1.3,0.4
		c1.1,0.3,1.8,0.5,2.2,0.7c0.4,0.2,0.7,0.4,1,0.8s0.4,0.8,0.4,1.3c0,0.5-0.1,1-0.4,1.4c-0.3,0.4-0.7,0.8-1.3,1
		c-0.5,0.2-1.2,0.4-1.9,0.4c-1.1,0-2-0.2-2.6-0.7C71.2,95.1,70.8,94.4,70.6,93.4z"/>
	<path class="st2" d="M79.7,99.4V87.2h1.4v1.1c0.3-0.4,0.7-0.8,1.1-1c0.4-0.2,0.9-0.3,1.5-0.3c0.8,0,1.4,0.2,2,0.6
		c0.6,0.4,1,0.9,1.3,1.6c0.3,0.7,0.4,1.5,0.4,2.3c0,0.9-0.2,1.7-0.5,2.4c-0.3,0.7-0.8,1.3-1.4,1.7s-1.3,0.6-1.9,0.6
		c-0.5,0-0.9-0.1-1.3-0.3c-0.4-0.2-0.7-0.5-1-0.8v4.3H79.7z M81.1,91.7c0,1.1,0.2,2,0.7,2.5c0.5,0.5,1,0.8,1.7,0.8
		c0.7,0,1.2-0.3,1.7-0.8c0.5-0.6,0.7-1.4,0.7-2.6c0-1.1-0.2-2-0.7-2.5s-1-0.8-1.7-0.8c-0.6,0-1.2,0.3-1.7,0.9
		C81.3,89.7,81.1,90.6,81.1,91.7z"/>
	<path class="st2" d="M88.6,91.7c0-1.6,0.5-2.8,1.4-3.6c0.8-0.7,1.7-1,2.8-1c1.2,0,2.2,0.4,3,1.2c0.8,0.8,1.2,1.9,1.2,3.3
		c0,1.1-0.2,2-0.5,2.7s-0.8,1.2-1.5,1.5c-0.6,0.4-1.4,0.5-2.1,0.5c-1.2,0-2.2-0.4-3-1.2C89,94.3,88.6,93.1,88.6,91.7z M90.2,91.7
		c0,1.1,0.2,2,0.7,2.5c0.5,0.6,1.1,0.8,1.9,0.8c0.7,0,1.4-0.3,1.9-0.8s0.7-1.4,0.7-2.6c0-1.1-0.2-1.9-0.7-2.5
		c-0.5-0.6-1.1-0.8-1.8-0.8c-0.7,0-1.4,0.3-1.9,0.8C90.4,89.7,90.2,90.5,90.2,91.7z"/>
	<path class="st2" d="M98.6,96.1v-8.8h1.3v1.3c0.6-1,1.6-1.5,2.8-1.5c0.5,0,1,0.1,1.5,0.3c0.4,0.2,0.8,0.4,1,0.8
		c0.2,0.3,0.4,0.7,0.5,1.1c0.1,0.3,0.1,0.8,0.1,1.5v5.4h-1.5v-5.4c0-0.6-0.1-1.1-0.2-1.4c-0.1-0.3-0.3-0.5-0.6-0.7
		c-0.3-0.2-0.6-0.3-1-0.3c-0.6,0-1.2,0.2-1.6,0.6c-0.5,0.4-0.7,1.2-0.7,2.3v4.8H98.6z"/>
	<path class="st2" d="M108.1,85.6v-1.7h1.5v1.7H108.1z M108.1,96.1v-8.8h1.5v8.8H108.1z"/>
	<path class="st2" d="M113.2,96.1h-1.4V83.9h1.5v4.3c0.6-0.8,1.4-1.2,2.4-1.2c0.5,0,1.1,0.1,1.5,0.3c0.5,0.2,0.9,0.5,1.2,0.9
		c0.3,0.4,0.6,0.9,0.7,1.4c0.2,0.6,0.3,1.2,0.3,1.8c0,1.5-0.4,2.7-1.1,3.5c-0.7,0.8-1.6,1.2-2.7,1.2c-1,0-1.9-0.4-2.4-1.3V96.1z
		 M113.2,91.6c0,1.1,0.1,1.8,0.4,2.3c0.5,0.8,1.1,1.2,1.9,1.2c0.7,0,1.2-0.3,1.7-0.9c0.5-0.6,0.7-1.4,0.7-2.5c0-1.2-0.2-2-0.7-2.5
		c-0.5-0.5-1-0.8-1.7-0.8c-0.7,0-1.2,0.3-1.7,0.9C113.5,89.7,113.2,90.5,113.2,91.6z"/>
	<path class="st2" d="M121.3,85.6v-1.7h1.5v1.7H121.3z M121.3,96.1v-8.8h1.5v8.8H121.3z"/>
	<path class="st2" d="M125.1,96.1V83.9h1.5v12.2H125.1z"/>
	<path class="st2" d="M134.9,93.2l1.5,0.2c-0.2,0.9-0.7,1.6-1.4,2.1c-0.7,0.5-1.5,0.7-2.5,0.7c-1.3,0-2.3-0.4-3.1-1.2
		c-0.8-0.8-1.1-1.9-1.1-3.3c0-1.5,0.4-2.6,1.1-3.5s1.8-1.2,3-1.2c1.2,0,2.1,0.4,2.9,1.2c0.7,0.8,1.1,1.9,1.1,3.4c0,0.1,0,0.2,0,0.4
		h-6.6c0.1,1,0.3,1.7,0.8,2.2c0.5,0.5,1.1,0.8,1.8,0.8c0.5,0,1-0.1,1.4-0.4C134.4,94.3,134.7,93.9,134.9,93.2z M130,90.8h4.9
		c-0.1-0.7-0.3-1.3-0.6-1.7c-0.5-0.6-1.1-0.9-1.9-0.9c-0.7,0-1.3,0.2-1.7,0.7C130.3,89.4,130,90,130,90.8z"/>
</g>
</svg>
